<?xml version="1.0" standalone="no"?>
<!DOCTYPE svg PUBLIC "-//W3C//DTD SVG 20010904//EN"
 "http://www.w3.org/TR/2001/REC-SVG-20010904/DTD/svg10.dtd">
<svg version="1.0" xmlns="http://www.w3.org/2000/svg"
 width="280.000000pt" height="350.000000pt" viewBox="0 0 280.000000 350.000000"
 preserveAspectRatio="xMidYMid meet">

<g transform="translate(0.000000,350.000000) scale(0.100000,-0.100000)"
fill="#000000" stroke="none">
<path d="M950 2970 c-24 -24 -25 -62 -6 -145 8 -33 12 -63 10 -67 -6 -9 -50
20 -92 60 -34 31 -99 61 -134 62 -33 0 -58 -33 -58 -75 1 -16 12 -82 26 -145
13 -63 31 -146 38 -185 8 -38 23 -108 34 -155 54 -223 85 -595 86 -1005 1
-307 1 -311 -28 -433 -25 -110 -27 -128 -16 -167 25 -89 73 -109 260 -110 133
0 202 15 254 56 14 11 61 70 104 132 118 165 143 184 275 207 135 24 172 -11
282 -267 22 -51 48 -77 100 -97 55 -21 208 -36 253 -25 109 27 111 29 134 72
22 41 22 48 24 522 2 264 4 656 5 870 2 318 0 416 -14 529 -29 239 -65 336
-125 336 -28 0 -93 -59 -155 -139 -39 -50 -42 -52 -48 -30 -9 35 -47 109 -76
147 -19 25 -31 32 -59 32 -50 0 -62 -9 -144 -104 -42 -49 -81 -86 -92 -86 -10
0 -64 45 -122 100 -57 55 -112 100 -122 100 -33 0 -58 -25 -125 -124 -35 -53
-68 -96 -74 -96 -10 0 -51 31 -178 137 -138 113 -179 131 -217 93z m190 -151
c41 -35 106 -93 143 -129 38 -36 72 -66 76 -68 4 -1 14 10 21 25 8 16 30 50
49 78 34 46 67 101 93 153 6 12 17 22 24 22 6 0 49 -43 95 -95 82 -94 113
-115 169 -115 28 0 78 49 162 160 40 53 57 56 77 15 8 -16 20 -42 28 -57 7
-14 13 -37 12 -50 0 -15 -6 -6 -20 29 -11 28 -26 54 -34 57 -20 7 -20 -23 0
-60 8 -16 15 -38 14 -49 0 -18 -1 -18 -9 3 -5 12 -14 22 -20 22 -5 0 -10 10
-10 23 0 47 -16 49 -36 5 -33 -76 -119 -131 -176 -114 -7 2 -26 7 -41 11 -18
4 -61 39 -118 98 -57 59 -92 88 -98 82 -5 -6 -19 -39 -31 -74 -25 -74 -74
-151 -101 -158 -10 -3 -17 -9 -14 -13 3 -4 -2 -13 -10 -20 -12 -10 -27 0 -88
55 -47 43 -84 69 -101 71 -31 3 -76 29 -76 44 0 13 51 -9 67 -29 14 -16 27
-12 15 4 -15 21 -132 104 -132 94 0 -5 -4 -7 -10 -4 -6 3 -10 -4 -9 -17 0 -13
3 -17 6 -10 2 6 9 10 14 6 5 -3 5 -13 -1 -25 -6 -10 -7 -19 -2 -19 5 0 9 -6
10 -12 2 -25 21 -124 30 -160 9 -35 1 -51 -13 -28 -3 6 -19 10 -35 10 -16 0
-37 8 -47 19 -24 25 -104 81 -115 81 -5 0 -2 -10 6 -22 23 -32 19 -47 -4 -19
-11 13 -20 34 -20 47 0 12 -4 25 -9 28 -11 7 2 -51 18 -82 35 -65 122 -613
137 -857 3 -49 8 -115 12 -145 4 -30 7 -161 7 -290 0 -197 2 -237 15 -247 13
-11 13 -12 -1 -13 -18 0 -29 -28 -29 -74 0 -40 13 -24 17 21 1 20 4 38 6 40 9
9 35 -10 46 -33 15 -33 15 -34 -13 -34 -28 0 -36 -21 -36 -102 0 -36 5 -58 13
-61 7 -3 6 -6 -5 -6 -21 -1 -30 27 -27 79 2 21 0 43 -5 47 -4 4 -7 -24 -6 -62
1 -39 -2 -82 -6 -97 -4 -19 -2 -28 5 -28 7 0 11 8 10 17 -3 31 1 36 16 23 11
-10 18 -9 30 4 20 20 32 21 16 2 -10 -12 -8 -13 8 -9 13 3 21 1 21 -7 0 -7 7
-10 18 -6 16 6 16 5 0 -7 -21 -17 -210 -52 -232 -44 -21 8 -20 47 4 149 31
135 41 282 35 517 -7 258 -44 689 -65 771 -12 45 -35 160 -56 280 -9 52 -29
150 -45 218 -16 68 -29 128 -29 133 0 12 84 -47 203 -144 53 -44 100 -77 104
-74 3 4 1 32 -5 64 -33 171 -42 222 -42 242 l0 22 28 -19 c15 -11 61 -48 102
-83z m1223 17 c3 -8 8 -45 10 -82 3 -38 3 -58 0 -44 -22 135 -35 156 -48 79
-5 -26 -10 -37 -15 -29 -5 8 -22 -8 -51 -51 -45 -68 -72 -94 -77 -78 -3 6 -10
5 -18 -2 -29 -24 -12 6 29 51 23 26 49 56 57 67 71 95 102 119 113 89z m-813
-55 c0 -6 -4 -13 -10 -16 -5 -3 -10 1 -10 9 0 9 5 16 10 16 6 0 10 -4 10 -9z
m447 -13 c-3 -8 -6 -5 -6 6 -1 11 2 17 5 13 3 -3 4 -12 1 -19z m-366 -5 c13
-16 12 -17 -3 -4 -10 7 -18 15 -18 17 0 8 8 3 21 -13z m-514 -75 c-3 -8 -6 -5
-6 6 -1 11 2 17 5 13 3 -3 4 -12 1 -19z m1217 -33 c5 -22 4 -26 -4 -15 -5 8
-10 24 -10 34 0 26 6 18 14 -19z m-1217 -17 c-3 -7 -5 -2 -5 12 0 14 2 19 5
13 2 -7 2 -19 0 -25z m940 6 c-3 -3 -12 -4 -19 -1 -8 3 -5 6 6 6 11 1 17 -2
13 -5z m-56 -41 c13 -16 12 -17 -3 -4 -10 7 -18 15 -18 17 0 8 8 3 21 -13z
m-1065 -18 c-2 -7 2 -16 11 -19 11 -5 14 -14 9 -37 -4 -21 -2 -28 6 -23 6 4 8
3 5 -3 -3 -5 5 -32 18 -59 14 -27 25 -57 25 -66 0 -10 4 -18 8 -18 5 0 9 -15
9 -32 1 -18 4 -54 8 -80 7 -44 6 -48 -13 -48 -15 0 -19 -5 -15 -20 3 -11 10
-20 15 -20 6 0 7 -7 4 -16 -3 -8 -2 -13 3 -10 5 3 12 -1 15 -10 3 -8 2 -12 -4
-9 -6 3 -10 2 -10 -3 0 -6 6 -12 13 -15 13 -5 42 -115 33 -124 -3 -3 4 -20 16
-37 19 -26 19 -29 3 -16 -17 14 -18 13 -12 -2 3 -10 2 -18 -4 -18 -5 0 -12 14
-15 30 -4 17 -10 30 -15 30 -5 0 -4 -11 1 -25 5 -14 6 -25 2 -25 -4 0 1 -5 12
-11 15 -9 16 -13 5 -20 -11 -7 -9 -10 9 -15 16 -5 22 -14 22 -33 0 -26 20 -69
20 -43 0 7 14 12 35 12 32 0 52 -19 23 -21 -8 0 -9 -2 -2 -5 8 -3 7 -20 -2
-56 -8 -29 -11 -68 -7 -91 4 -28 2 -41 -8 -47 -11 -7 -10 -10 4 -16 9 -3 17
-10 17 -16 0 -5 -6 -6 -12 -2 -10 5 -10 4 -1 -6 10 -11 9 -16 -5 -27 -10 -9
-11 -12 -2 -7 13 7 13 6 1 -9 -12 -15 -11 -20 4 -38 11 -11 25 -17 32 -15 7 3
13 1 13 -5 0 -6 4 -8 8 -5 10 6 9 36 -1 53 -18 29 -37 113 -37 165 0 106 51
197 134 240 55 28 145 20 251 -22 103 -41 289 -80 383 -80 58 0 83 5 123 25
55 29 99 46 99 41 0 -12 -153 -74 -195 -80 -68 -9 -294 36 -409 81 -112 43
-188 53 -237 28 -86 -43 -132 -126 -133 -235 -1 -120 30 -178 109 -200 53 -15
130 1 238 49 136 61 249 63 432 6 88 -28 121 -30 179 -14 44 12 136 97 136
126 0 22 29 104 30 85 0 -8 -7 -38 -15 -67 -12 -41 -28 -64 -69 -103 -30 -28
-66 -54 -81 -58 -42 -10 -131 2 -233 31 -82 24 -106 27 -195 23 -93 -5 -110
-9 -197 -48 -112 -50 -198 -63 -250 -36 -31 15 -34 15 -46 -1 -9 -14 -9 -20
-1 -26 8 -6 6 -7 -5 -3 -16 5 -23 -5 -19 -27 1 -5 -3 -6 -9 -2 -10 6 -15 -13
-12 -47 2 -25 -7 -22 -18 5 -9 18 -10 16 -7 -17 3 -31 1 -35 -9 -22 -11 15
-12 15 -18 -1 -4 -10 -2 -19 3 -21 20 -7 11 -24 -10 -19 -15 4 -19 2 -15 -8 6
-16 -17 -38 -29 -27 -5 4 -5 1 -1 -6 4 -7 11 -10 16 -7 4 3 7 -13 6 -34 -1
-22 2 -37 7 -34 5 3 4 -4 -2 -15 -8 -15 -8 -22 2 -25 8 -3 6 -9 -8 -20 -18
-14 -21 -13 -35 6 -8 12 -13 27 -11 32 4 12 2 288 -3 425 -8 218 -47 562 -87
780 -24 125 -49 266 -49 273 0 5 5 5 11 2 6 -4 8 -13 5 -20z m1211 18 c-4 -3
-1 -13 6 -22 11 -14 10 -14 -5 -2 -21 15 -23 31 -6 31 6 0 8 -3 5 -7z m240
-40 c-3 -10 -5 -4 -5 12 0 17 2 24 5 18 2 -7 2 -21 0 -30z m-632 -12 c-90 -22
-140 -49 -192 -103 -42 -43 -102 -158 -104 -200 -1 -16 -3 -18 -6 -6 -6 22 21
99 53 154 45 76 145 145 238 164 75 14 82 8 11 -9z m108 12 c-7 -2 -19 -2 -25
0 -7 3 -2 5 12 5 14 0 19 -2 13 -5z m75 0 c-10 -2 -28 -2 -40 0 -13 2 -5 4 17
4 22 1 32 -1 23 -4z m-908 -32 c0 -6 -9 -9 -19 -8 -11 0 -17 5 -15 9 7 11 34
10 34 -1z m996 -7 c18 -14 18 -14 -6 -3 -31 14 -36 19 -24 19 6 0 19 -7 30
-16z m-77 -43 c118 -45 176 -131 176 -261 0 -133 -63 -214 -202 -261 -156 -52
-321 13 -379 149 -39 91 6 259 86 323 80 65 222 87 319 50z m186 -37 c19 -26
35 -52 35 -58 0 -6 -8 3 -19 19 -10 17 -31 42 -46 58 -15 15 -23 27 -17 27 6
0 27 -21 47 -46z m262 9 c-3 -10 -5 -4 -5 12 0 17 2 24 5 18 2 -7 2 -21 0 -30z
m-189 -228 l-1 -70 -7 80 c-3 44 -11 90 -18 102 -7 12 -12 25 -11 30 0 4 9
-10 20 -32 13 -29 18 -60 17 -110z m119 68 c-3 -10 -5 -2 -5 17 0 19 2 27 5
18 2 -10 2 -26 0 -35z m-1107 -76 c11 -21 11 -21 -4 -3 -20 25 -20 18 0 -62
15 -59 15 -65 0 -80 -9 -9 -16 -11 -16 -5 0 6 5 13 11 15 16 5 2 31 -31 53
-16 11 -27 21 -25 24 3 2 0 10 -6 18 -9 9 -8 13 0 13 6 0 11 7 11 16 0 9 -5
12 -12 8 -7 -4 -8 -3 -4 4 4 7 18 12 32 12 17 0 23 4 18 12 -4 7 -3 8 4 4 7
-4 17 -17 22 -29z m227 -29 c-3 -8 -6 -5 -6 6 -1 11 2 17 5 13 3 -3 4 -12 1
-19z m750 -70 c-3 -8 -6 -5 -6 6 -1 11 2 17 5 13 3 -3 4 -12 1 -19z m-709 -60
c23 -52 21 -65 -1 -20 -16 29 -33 80 -25 72 3 -3 15 -26 26 -52z m648 -63
c-36 -47 -43 -45 -8 4 15 21 29 37 31 35 2 -2 -8 -19 -23 -39z m-481 -91 c112
-50 239 -43 367 19 36 18 64 28 61 24 -3 -5 -40 -25 -81 -44 -146 -66 -296
-55 -424 31 -16 10 -28 23 -28 29 0 6 10 1 23 -11 12 -11 49 -33 82 -48z m742
-51 c-2 -16 -4 -3 -4 27 0 30 2 43 4 28 2 -16 2 -40 0 -55z m-89 35 c19 -19
14 -33 -5 -15 -10 8 -31 17 -48 20 -29 4 -28 4 6 6 19 0 40 -4 47 -11z m-780
-93 c28 -13 52 -29 52 -35 0 -19 -70 -88 -97 -95 -45 -11 -81 11 -88 56 -4 21
-4 52 0 69 6 27 11 30 43 30 20 0 61 -11 90 -25z m839 -312 c-2 -16 -4 -3 -4
27 0 30 2 43 4 28 2 -16 2 -40 0 -55z m0 -100 c-3 -10 -5 -4 -5 12 0 17 2 24
5 18 2 -7 2 -21 0 -30z m3 -39 c0 -8 -4 -12 -10 -9 -5 3 -10 10 -10 16 0 5 5
9 10 9 6 0 10 -7 10 -16z m-13 -46 c-3 -8 -6 -5 -6 6 -1 11 2 17 5 13 3 -3 4
-12 1 -19z m13 -102 c0 -26 -6 -18 -14 19 -5 22 -4 26 4 15 5 -8 10 -24 10
-34z m-8 -63 c-3 -16 -7 -22 -10 -15 -4 13 4 42 11 42 2 0 2 -12 -1 -27z
m-363 -39 c14 -12 -19 -1 -35 12 -18 14 -18 14 6 3 14 -6 27 -13 29 -15z m398
-36 c-3 -8 -6 -5 -6 6 -1 11 2 17 5 13 3 -3 4 -12 1 -19z m-977 -11 c0 -2 -12
-14 -27 -28 l-28 -24 24 28 c23 25 31 32 31 24z m635 -23 c9 -15 12 -23 6 -20
-11 7 -35 46 -28 46 3 0 12 -12 22 -26z m302 -86 c-2 -13 -4 -3 -4 22 0 25 2
35 4 23 2 -13 2 -33 0 -45z m-339 7 c-3 -3 -9 2 -12 12 -6 14 -5 15 5 6 7 -7
10 -15 7 -18z m91 -20 c0 -5 -6 -1 -14 9 -8 11 -15 24 -15 30 0 5 7 1 15 -10
8 -10 14 -23 14 -29z m-779 22 c0 -2 -10 -12 -22 -23 l-23 -19 19 23 c18 21
26 27 26 19z m-80 -110 c0 -2 -10 -12 -22 -23 l-23 -19 19 23 c18 21 26 27 26
19z m90 -1 c0 -2 -8 -10 -17 -17 -16 -13 -17 -12 -4 4 13 16 21 21 21 13z
m1011 -23 c-12 -20 -14 -14 -5 12 4 9 9 14 11 11 3 -2 0 -13 -6 -23z m-1169
-25 c-7 -7 -12 -8 -12 -2 0 14 12 26 19 19 2 -3 -1 -11 -7 -17z m1075 -4 c-3
-3 -12 -4 -19 -1 -8 3 -5 6 6 6 11 1 17 -2 13 -5z m61 -11 c-10 -2 -26 -2 -35
0 -10 3 -2 5 17 5 19 0 27 -2 18 -5z m-1338 -59 c0 -2 -18 -4 -40 -4 -22 0
-40 3 -40 8 0 4 18 6 40 4 22 -2 40 -6 40 -8z"/>
<path d="M1075 1030 c3 -5 8 -10 11 -10 2 0 4 5 4 10 0 6 -5 10 -11 10 -5 0
-7 -4 -4 -10z"/>
<path d="M1048 783 c7 -3 16 -2 19 1 4 3 -2 6 -13 5 -11 0 -14 -3 -6 -6z"/>
<path d="M1110 1716 c0 -2 6 -9 13 -15 10 -8 14 -7 14 4 0 8 -6 15 -14 15 -7
0 -13 -2 -13 -4z"/>
<path d="M1096 1641 c-4 -5 3 -7 14 -4 23 6 26 13 6 13 -8 0 -17 -4 -20 -9z"/>
<path d="M1190 1419 c0 -5 5 -7 10 -4 6 3 10 8 10 11 0 2 -4 4 -10 4 -5 0 -10
-5 -10 -11z"/>
<path d="M1115 1299 c-4 -6 -5 -12 -2 -15 2 -3 7 2 10 11 7 17 1 20 -8 4z"/>
<path d="M1081 1124 c0 -11 3 -14 6 -6 3 7 2 16 -1 19 -3 4 -6 -2 -5 -13z"/>
<path d="M1839 2309 c-54 -58 -31 -144 45 -169 46 -15 82 -4 111 35 58 75 8
165 -90 165 -28 0 -44 -7 -66 -31z"/>
<path d="M1798 2013 c12 -2 30 -2 40 0 9 3 -1 5 -23 4 -22 0 -30 -2 -17 -4z"/>
</g>
</svg>
