<?xml version="1.0" standalone="no"?>
<!DOCTYPE svg PUBLIC "-//W3C//DTD SVG 20010904//EN"
 "http://www.w3.org/TR/2001/REC-SVG-20010904/DTD/svg10.dtd">
<svg version="1.0" xmlns="http://www.w3.org/2000/svg"
 width="360.000000pt" height="170.000000pt" viewBox="0 0 360.000000 170.000000"
 preserveAspectRatio="xMidYMid meet">

<g transform="translate(0.000000,170.000000) scale(0.100000,-0.100000)"
fill="#000000" stroke="none">
<path d="M2365 1368 c-16 -6 -39 -19 -50 -29 -32 -29 -96 -52 -108 -40 -15 15
-68 13 -89 -3 -14 -10 -57 -13 -172 -11 -135 2 -161 5 -211 25 -58 23 -58 23
-124 6 -120 -33 -196 -46 -224 -40 -16 3 -45 6 -65 6 -21 -1 -90 12 -156 29
-155 38 -166 38 -166 -2 0 -26 -3 -30 -18 -24 -32 13 -256 13 -357 0 -110 -14
-283 -55 -331 -79 -17 -9 -39 -25 -49 -36 -18 -20 -18 -21 3 -27 27 -7 28 -24
3 -47 -11 -10 -30 -39 -42 -64 -20 -41 -23 -63 -23 -167 0 -148 18 -202 97
-286 48 -51 58 -57 136 -78 75 -20 119 -24 380 -31 163 -4 472 -6 686 -4 215
2 674 6 1020 8 705 4 728 6 863 73 80 40 120 79 159 156 35 70 44 220 18 299
-20 65 -75 158 -92 158 -7 0 -13 5 -13 10 0 6 5 10 10 10 17 0 11 50 -6 57 -9
3 -32 1 -51 -6 -28 -10 -38 -10 -56 1 -53 34 -123 52 -194 51 -65 -2 -73 0
-73 17 0 10 -14 30 -32 45 -25 21 -39 26 -65 22 -43 -7 -88 -40 -104 -75 l-12
-27 -81 6 c-44 3 -138 4 -207 1 l-126 -4 -7 25 c-3 14 -3 39 0 56 6 28 4 31
-17 30 -13 0 -37 -5 -54 -11z m649 -61 c14 -10 17 -24 15 -60 -5 -52 -3 -54
22 -31 29 26 91 30 112 6 10 -11 15 -26 11 -35 -6 -17 -61 -37 -104 -37 -47 0
-54 -16 -16 -34 44 -21 55 -55 32 -92 -10 -14 -24 -28 -32 -31 -24 -9 -63 14
-75 44 -10 27 -11 27 -25 9 -8 -11 -14 -23 -14 -28 0 -12 -57 -38 -83 -38 -45
0 -52 67 -9 99 l27 20 -33 1 c-70 0 -102 39 -76 93 l16 34 48 -11 c26 -6 57
-19 67 -28 24 -22 40 -24 23 -3 -17 20 -7 91 16 116 20 22 52 25 78 6z m-647
-30 c-6 -12 -26 -35 -46 -51 -23 -18 -29 -26 -15 -22 11 3 106 8 211 11 182 4
192 4 198 -14 3 -11 3 -30 0 -43 -6 -29 12 -54 55 -71 19 -9 28 -17 21 -21 -6
-4 -11 -23 -11 -41 0 -28 6 -39 37 -60 50 -33 82 -32 118 5 24 25 32 28 40 17
33 -45 102 -44 134 1 18 26 34 125 19 115 -5 -2 -8 0 -8 6 0 6 19 19 43 31 23
11 59 31 80 43 l38 22 23 -26 c14 -16 37 -28 61 -32 46 -8 66 -30 95 -105 21
-56 27 -128 10 -117 -5 3 -10 19 -10 34 0 37 -19 92 -37 111 -14 13 -14 13 -5
-5 5 -11 10 -58 11 -104 2 -75 -1 -87 -21 -109 -13 -14 -17 -22 -10 -18 7 4
12 2 12 -5 0 -8 4 -8 15 1 19 15 42 -1 30 -20 -6 -9 -9 -9 -15 0 -4 7 -10 0
-13 -19 -7 -36 -33 -41 -72 -15 -14 9 -39 14 -66 12 -38 -3 -44 -7 -62 -42
-13 -24 -32 -43 -53 -52 -32 -13 -146 -15 -159 -2 -8 7 52 53 82 62 11 4 27
14 35 23 11 15 11 16 -7 8 -28 -11 -85 -19 -85 -10 0 3 7 13 15 21 11 11 12
21 5 33 -5 10 -6 21 -3 25 3 3 2 6 -4 6 -6 0 -16 -7 -23 -15 -11 -13 -10 -14
5 -9 13 5 16 4 11 -4 -4 -7 -14 -12 -22 -12 -8 0 -14 -4 -14 -10 0 -13 6 -13
33 1 15 7 12 2 -8 -15 -22 -18 -42 -25 -72 -26 -23 0 -44 -4 -48 -10 -3 -5
-12 -7 -20 -4 -7 3 -22 1 -32 -5 -16 -9 -16 -10 5 -11 l23 0 -23 -30 c-17 -23
-30 -30 -57 -30 -20 -1 -54 -9 -76 -20 -52 -25 -57 -25 -84 4 -12 13 -36 26
-52 30 -19 3 -29 12 -29 23 -1 15 -5 14 -23 -8 -23 -25 -67 -45 -67 -30 0 5
10 13 23 19 22 10 22 11 -5 11 -31 1 -80 -18 -91 -36 -4 -7 -27 -12 -52 -11
-43 0 -57 10 -35 23 16 10 -8 45 -31 45 -11 0 -27 -7 -35 -15 -9 -9 -34 -15
-59 -15 -25 0 -50 -6 -59 -15 -8 -8 -19 -15 -23 -15 -5 0 -18 -7 -29 -15 -10
-8 -14 -15 -9 -14 25 3 33 -2 28 -21 -4 -15 -14 -20 -39 -20 -45 0 -54 23 -23
56 19 20 21 27 10 34 -10 6 -2 12 30 21 27 8 37 14 26 16 -9 3 -32 0 -50 -6
-17 -5 -52 -13 -77 -16 -69 -10 -120 -27 -120 -40 0 -6 -16 -19 -35 -28 -40
-19 -59 -22 -50 -7 9 14 -8 13 -23 -2 -17 -17 -15 -33 2 -19 10 8 16 8 25 -3
10 -12 -5 -14 -104 -15 -72 0 -113 4 -110 10 4 5 11 7 16 4 16 -10 97 6 103
21 4 10 -2 12 -26 7 -24 -5 -30 -3 -26 8 3 8 12 14 20 14 17 0 128 66 128 76
0 3 -10 5 -22 3 -13 -1 -32 -3 -43 -4 l-20 -1 20 -9 c15 -6 16 -9 4 -9 -9 -1
-24 -10 -34 -21 -22 -24 -35 -26 -35 -5 0 20 -19 19 -27 0 -3 -9 -23 -33 -44
-54 -21 -22 -35 -42 -32 -45 4 -3 -5 -6 -18 -6 -21 1 -22 2 -6 11 20 12 23 34
3 26 -8 -3 -21 2 -30 12 -14 16 -13 18 17 29 17 7 42 20 54 30 22 17 21 17
-50 17 -39 -1 -80 3 -91 8 -11 6 -21 5 -25 -1 -4 -6 -26 -7 -65 -1 -41 7 -62
6 -72 -2 -8 -6 -14 -7 -14 -2 0 6 10 15 23 21 22 11 22 11 -5 11 -15 1 -30 -4
-33 -9 -4 -6 -11 -8 -16 -5 -5 4 -19 -1 -31 -10 -13 -8 -40 -20 -60 -26 -20
-5 -44 -16 -51 -24 -8 -8 -40 -26 -71 -41 -93 -44 -185 -20 -169 44 4 19 1 22
-23 22 -44 0 -74 11 -74 26 0 19 -52 44 -77 38 -12 -3 -24 -1 -27 5 -4 6 -19
11 -34 10 -26 -1 -26 -1 -4 -7 13 -4 24 -11 25 -17 1 -5 5 -9 9 -7 5 1 8 -3 8
-9 0 -6 9 -9 20 -6 21 5 27 -7 9 -19 -8 -4 -7 -9 2 -15 11 -6 9 -9 -7 -9 -11
0 -29 9 -39 20 -24 27 -35 25 -35 -5 0 -27 -33 -42 -68 -30 -11 3 -23 2 -26
-3 -8 -14 35 -33 106 -47 l63 -13 -50 -1 c-33 -1 -65 6 -90 19 -22 11 -49 20
-62 20 -12 0 -25 5 -28 10 -3 6 -19 10 -34 10 -15 0 -33 6 -41 13 -12 10 -12
9 -1 -5 7 -10 23 -20 34 -24 12 -3 29 -12 37 -19 8 -7 32 -18 53 -25 21 -6 37
-14 34 -16 -2 -2 -26 3 -53 11 -59 18 -67 18 -58 4 13 -22 -42 15 -79 53 -44
45 -49 58 -66 153 -18 99 -3 203 36 249 32 37 76 61 99 52 9 -3 22 1 30 9 14
13 13 15 -11 15 -29 0 -105 36 -105 49 0 5 33 11 72 13 40 3 120 15 177 27 90
20 125 22 265 19 129 -3 168 -7 194 -21 17 -10 32 -22 32 -27 0 -6 -30 -11
-67 -11 l-68 -1 50 -9 c60 -11 71 -11 113 -3 37 7 40 17 11 42 -11 9 -29 34
-39 55 l-19 38 31 -6 c54 -12 179 -77 174 -90 -3 -8 16 -23 46 -39 60 -31 78
-33 53 -6 -10 11 -23 20 -29 20 -18 0 -33 14 -40 38 -7 20 -4 22 36 22 24 0
59 -4 77 -10 20 -5 39 -6 45 -1 6 5 46 12 88 16 80 7 144 -6 161 -32 4 -7 12
-13 17 -13 13 0 1 31 -23 57 -33 37 4 40 60 6 38 -24 64 -31 126 -36 46 -3 75
-2 72 4 -4 5 32 9 85 9 67 0 97 4 116 16 13 9 27 15 29 12 4 -4 -16 -88 -30
-120 -9 -24 18 -24 36 -1 12 15 12 16 -6 9 -18 -6 -19 -6 -4 9 15 15 35 22 67
24 6 1 12 7 12 14 1 24 123 112 141 101 4 -2 2 -14 -4 -27z m963 -98 c0 -6 -4
-7 -10 -4 -5 3 -10 11 -10 16 0 6 5 7 10 4 6 -3 10 -11 10 -16z m160 -283 c0
-3 -4 -8 -10 -11 -5 -3 -10 -1 -10 4 0 6 5 11 10 11 6 0 10 -2 10 -4z m-50
-136 c-6 -12 -14 -19 -17 -17 -2 3 1 15 7 27 6 12 14 19 17 17 2 -3 -1 -15 -7
-27z m-2220 -69 c0 -23 -5 -30 -25 -33 -14 -3 -25 -1 -25 3 0 5 7 9 16 9 9 0
14 8 13 18 -2 26 0 32 11 32 6 0 10 -13 10 -29z m-490 3 c0 -2 -9 -4 -21 -4
-11 0 -18 4 -14 10 5 8 35 3 35 -6z m2710 10 c0 -8 -63 -64 -74 -64 -5 0 4 10
20 22 16 12 33 28 37 35 8 13 17 17 17 7z m-1218 -29 c0 -14 -29 -31 -38 -22
-9 8 16 39 28 35 5 -2 10 -8 10 -13z m-1487 -23 c-7 -8 -35 7 -35 18 0 6 7 6
20 -2 10 -7 17 -14 15 -16z m422 13 c0 -8 -4 -15 -9 -15 -10 0 -11 14 -1 23 9
10 10 9 10 -8z m81 -15 c-24 -33 -26 -34 -48 -20 -13 8 -13 10 1 10 9 0 24 9
34 20 28 31 38 24 13 -10z m120 -16 c12 -20 19 -34 15 -32 -5 3 -23 11 -40 18
-35 15 -43 30 -17 30 8 0 12 5 9 10 -3 6 -3 10 2 10 4 -1 18 -17 31 -36z m46
25 c8 7 23 11 33 8 16 -4 15 -6 -4 -12 -13 -4 -19 -12 -16 -21 3 -8 -1 -14 -9
-14 -16 0 -49 36 -40 44 3 4 9 1 13 -6 6 -9 11 -9 23 1z m-277 -5 c-3 -3 -12
-4 -19 -1 -8 3 -5 6 6 6 11 1 17 -2 13 -5z m148 -14 c-3 -5 -11 -10 -16 -10
-6 0 -7 5 -4 10 3 6 11 10 16 10 6 0 7 -4 4 -10z m1193 3 c-10 -2 -26 -2 -35
0 -10 3 -2 5 17 5 19 0 27 -2 18 -5z m-522 -12 c-3 -5 -18 -11 -33 -14 -26 -5
-26 -4 -8 9 21 15 49 19 41 5z m849 -1 c-3 -5 -11 -10 -16 -10 -6 0 -7 5 -4
10 3 6 11 10 16 10 6 0 7 -4 4 -10z m-2015 -16 c0 -2 -9 -4 -20 -4 -11 0 -20
4 -20 9 0 5 9 7 20 4 11 -3 20 -7 20 -9z m400 0 c0 -2 -7 -4 -15 -4 -8 0 -15
4 -15 10 0 5 7 7 15 4 8 -4 15 -8 15 -10z m317 -10 c-3 -3 -12 -4 -19 -1 -8 3
-5 6 6 6 11 1 17 -2 13 -5z m513 -13 c-26 -15 -90 -24 -90 -13 0 10 29 16 85
20 16 1 17 0 5 -7z m1233 2 c-7 -2 -21 -2 -30 0 -10 3 -4 5 12 5 17 0 24 -2
18 -5z m-1110 -10 c-7 -2 -19 -2 -25 0 -7 3 -2 5 12 5 14 0 19 -2 13 -5z
m-1516 -9 c-3 -3 -12 -4 -19 -1 -8 3 -5 6 6 6 11 1 17 -2 13 -5z m516 -1 c-7
-2 -19 -2 -25 0 -7 3 -2 5 12 5 14 0 19 -2 13 -5z m-86 -9 c-3 -3 -12 -4 -19
-1 -8 3 -5 6 6 6 11 1 17 -2 13 -5z m792 -10 c2 -2 -19 -4 -48 -4 -32 0 -50 4
-46 10 5 9 83 4 94 -6z m51 6 c-20 -13 -33 -13 -25 0 3 6 14 10 23 10 15 0 15
-2 2 -10z m997 4 c-3 -3 -12 -4 -19 -1 -8 3 -5 6 6 6 11 1 17 -2 13 -5z
m-1204 -11 c-13 -2 -33 -2 -45 0 -13 2 -3 4 22 4 25 0 35 -2 23 -4z m-116 -9
c-3 -3 -12 -4 -19 -1 -8 3 -5 6 6 6 11 1 17 -2 13 -5z"/>
<path d="M2940 1159 c0 -5 5 -7 10 -4 6 3 10 8 10 11 0 2 -4 4 -10 4 -5 0 -10
-5 -10 -11z"/>
<path d="M1120 1231 c0 -5 5 -13 10 -16 6 -3 10 -2 10 4 0 5 -4 13 -10 16 -5
3 -10 2 -10 -4z"/>
<path d="M1590 1226 c0 -2 7 -6 15 -10 8 -3 15 -1 15 4 0 6 -7 10 -15 10 -8 0
-15 -2 -15 -4z"/>
<path d="M1630 1211 c0 -5 7 -11 15 -15 8 -3 15 -1 15 3 0 5 -7 11 -15 15 -8
3 -15 1 -15 -3z"/>
<path d="M1191 1194 c13 -16 29 -19 29 -5 0 5 -9 11 -21 14 -16 4 -18 3 -8 -9z"/>
<path d="M1803 1173 c9 -2 23 -2 30 0 6 3 -1 5 -18 5 -16 0 -22 -2 -12 -5z"/>
<path d="M1463 1113 c9 -2 23 -2 30 0 6 3 -1 5 -18 5 -16 0 -22 -2 -12 -5z"/>
<path d="M3340 1116 c0 -3 9 -10 20 -16 11 -6 20 -8 20 -6 0 3 -9 10 -20 16
-11 6 -20 8 -20 6z"/>
<path d="M460 1090 c-9 -6 -10 -10 -3 -10 6 0 15 5 18 10 8 12 4 12 -15 0z"/>
<path d="M2727 1075 c3 -8 9 -12 14 -9 12 7 11 11 -5 17 -10 4 -13 1 -9 -8z"/>
<path d="M1071 1062 c0 -7 -17 -26 -36 -43 -37 -32 -44 -49 -22 -49 25 0 69
56 64 81 -2 13 -5 18 -6 11z"/>
<path d="M471 1033 c-7 -8 -11 -16 -8 -19 2 -2 10 2 17 11 17 20 9 27 -9 8z"/>
<path d="M530 1025 c-19 -23 -2 -94 29 -121 25 -22 90 -41 121 -35 21 4 51 32
61 59 6 15 17 22 34 22 23 0 26 3 23 32 -2 17 -8 33 -15 35 -7 3 -9 -3 -6 -16
5 -19 1 -21 -36 -21 -22 0 -41 -4 -41 -10 0 -5 5 -10 10 -10 6 0 10 -6 10 -14
0 -34 -72 -57 -105 -33 -16 13 -17 17 -6 31 18 21 3 21 -21 0 -36 -33 -67 29
-33 66 14 15 14 18 1 23 -8 3 -20 -1 -26 -8z"/>
<path d="M986 1031 c-3 -4 6 -6 19 -3 14 2 25 6 25 8 0 8 -39 4 -44 -5z"/>
<path d="M908 1023 c-13 -3 -38 -49 -38 -69 0 -14 22 1 36 25 10 16 27 34 38
40 20 9 20 10 1 9 -11 0 -28 -2 -37 -5z"/>
<path d="M3295 1009 c-22 -11 -32 -17 -23 -15 9 3 19 -2 22 -10 9 -24 7 -31
-4 -14 -8 13 -10 13 -10 -2 0 -9 4 -19 9 -22 5 -3 7 -15 4 -26 -3 -11 0 -20 6
-20 6 0 11 6 11 13 0 7 10 17 23 22 12 6 26 20 32 32 7 17 15 21 30 17 l20 -6
-20 20 c-30 30 -55 32 -100 11z"/>
<path d="M650 1001 c0 -6 5 -13 10 -16 6 -3 10 1 10 9 0 9 -4 16 -10 16 -5 0
-10 -4 -10 -9z"/>
<path d="M2196 999 c-14 -9 -15 -13 -6 -19 7 -5 21 -3 32 3 36 23 12 37 -26
16z"/>
<path d="M1625 990 c-3 -5 -2 -10 4 -10 5 0 13 5 16 10 3 6 2 10 -4 10 -5 0
-13 -4 -16 -10z"/>
<path d="M475 955 c-26 -11 -27 -13 -8 -14 27 -1 53 9 53 20 0 12 -9 11 -45
-6z"/>
<path d="M2070 875 c-56 -18 -100 -59 -81 -78 10 -9 14 -8 22 6 6 9 20 17 31
17 12 0 46 14 76 31 29 16 61 28 70 26 13 -3 10 -7 -10 -15 -16 -6 -28 -13
-28 -14 0 -2 20 -2 44 0 33 3 45 9 49 23 5 17 -1 19 -61 18 -37 0 -87 -7 -112
-14z"/>
<path d="M820 805 c0 -9 6 -12 15 -9 8 4 15 10 15 15 0 5 -7 9 -15 9 -8 0 -15
-7 -15 -15z"/>
<path d="M1092 778 c-7 -7 -27 -11 -46 -10 -26 2 -35 -2 -39 -18 -3 -13 0 -20
10 -20 8 0 11 4 8 10 -3 6 1 7 9 4 9 -3 16 -2 16 4 0 6 9 8 20 5 20 -5 50 12
50 28 0 13 -14 11 -28 -3z"/>
<path d="M1182 769 c-13 -5 -29 -6 -35 -3 -9 5 -9 4 -1 -5 11 -13 74 -4 74 10
0 11 -8 11 -38 -2z"/>
<path d="M2526 735 c-16 -12 -17 -15 -4 -15 9 0 18 7 22 15 7 18 6 18 -18 0z"/>
<path d="M330 706 c0 -9 5 -16 10 -16 6 0 10 4 10 9 0 6 -4 13 -10 16 -5 3
-10 -1 -10 -9z"/>
<path d="M1753 659 c-23 -11 -48 -28 -55 -36 -11 -14 -11 -15 7 -6 11 6 42 23
69 37 58 31 40 35 -21 5z"/>
</g>
</svg>
