<?xml version="1.0" standalone="no"?>
<!DOCTYPE svg PUBLIC "-//W3C//DTD SVG 20010904//EN"
 "http://www.w3.org/TR/2001/REC-SVG-20010904/DTD/svg10.dtd">
<svg version="1.0" xmlns="http://www.w3.org/2000/svg"
 width="360.000000pt" height="170.000000pt" viewBox="0 0 360.000000 170.000000"
 preserveAspectRatio="xMidYMid meet">

<g transform="translate(0.000000,170.000000) scale(0.100000,-0.100000)"
fill="#000000" stroke="none">
<path d="M565 1561 c-88 -5 -107 -10 -155 -38 -78 -45 -107 -80 -136 -161 -79
-229 -64 -408 44 -516 122 -123 145 -127 793 -127 309 0 551 4 603 11 61 8
163 8 349 0 333 -13 446 -19 472 -26 12 -3 53 2 93 10 54 11 109 14 220 10
240 -9 398 25 475 104 51 52 76 116 83 209 3 43 10 98 15 123 20 93 -20 238
-76 274 -22 14 -26 23 -22 45 4 20 0 32 -16 46 -33 29 -204 33 -1192 33 -490
0 -1016 2 -1170 5 -154 3 -325 2 -380 -2z m935 -65 c129 -3 323 -6 430 -6
l195 0 -25 -20 c-14 -11 -30 -20 -36 -20 -6 0 -19 -10 -30 -21 -19 -22 -19
-22 3 -10 12 6 51 11 87 11 73 0 110 11 135 40 15 18 35 20 296 26 262 6 486
-3 630 -24 l50 -7 -50 -23 c-27 -13 -59 -28 -70 -34 -18 -10 -47 -15 -235 -38
-41 -5 -91 -14 -110 -20 -77 -25 -537 -39 -988 -31 -147 3 -196 0 -205 -9 -9
-9 -9 -11 -1 -7 7 4 47 2 90 -3 70 -9 355 -25 634 -37 52 -2 115 2 140 8 47
11 327 31 485 34 50 1 99 6 110 12 11 6 22 11 25 11 3 0 30 11 62 25 85 38
168 22 168 -31 0 -16 5 -33 11 -39 13 -13 5 -43 -10 -43 -5 0 -12 12 -14 28
-3 17 -4 13 -3 -10 1 -21 -3 -39 -9 -40 -33 -5 -205 -2 -205 5 0 4 23 7 50 7
28 0 50 2 50 4 0 3 -5 17 -10 31 -6 15 -7 32 -3 38 4 6 8 19 8 28 1 15 -2 15
-24 6 -14 -7 -28 -14 -31 -17 -13 -15 -67 -45 -85 -47 -11 -2 -25 -10 -31 -18
-6 -8 -22 -15 -35 -15 -25 0 -65 -20 -41 -20 6 0 12 -4 12 -10 0 -6 -55 -10
-147 -9 -82 1 -139 3 -128 6 34 8 38 20 5 15 -16 -2 -30 -8 -30 -13 0 -5 -8
-9 -17 -9 -14 -1 -12 -5 9 -23 l27 -22 -217 -2 c-119 -1 -258 -6 -308 -10 -50
-5 -109 -5 -130 0 -32 7 -647 2 -884 -8 -36 -1 -68 0 -73 2 -4 2 5 17 20 32
30 29 77 45 162 56 50 7 147 53 162 77 4 6 4 22 0 36 -10 38 -62 50 -258 57
-93 3 -195 10 -228 15 -33 5 -112 11 -175 14 -63 3 -125 8 -138 12 -13 4 -22
3 -21 -2 5 -27 -1 -36 -16 -24 -12 10 -15 10 -15 -3 0 -26 59 -42 155 -41 234
4 320 3 445 -6 150 -10 195 -20 195 -41 0 -18 -33 -33 -137 -60 l-87 -23 -49
23 c-44 20 -54 22 -85 12 -20 -7 -71 -14 -114 -16 -125 -6 -207 -17 -218 -31
-14 -17 -161 -35 -211 -25 -61 12 -66 17 -59 65 9 53 19 72 66 123 22 24 39
49 39 56 0 8 9 22 21 33 18 17 42 20 183 24 178 6 476 4 836 -4z m1785 -116
c3 -5 -1 -10 -10 -10 -9 0 -13 5 -10 10 3 6 8 10 10 10 2 0 7 -4 10 -10z
m-2945 -135 c0 -8 -4 -15 -10 -15 -5 0 -7 7 -4 15 4 8 8 15 10 15 2 0 4 -7 4
-15z m2705 -25 c-3 -5 -21 -9 -38 -9 l-32 1 30 8 c43 11 47 11 40 0z m-2068
-28 c-50 -54 -127 -79 -326 -107 -63 -9 -128 -23 -145 -31 l-31 -14 30 6 c36
7 384 6 396 -2 5 -3 9 -1 9 5 0 17 35 31 87 35 61 6 828 21 948 20 201 -3 245
-3 370 1 233 8 365 17 365 26 0 10 4 10 230 13 96 2 223 6 281 10 122 8 134 3
112 -54 l-14 -35 5 38 c3 20 1 37 -3 37 -9 0 -21 -72 -21 -121 0 -34 -26 -62
-51 -56 -16 4 -18 1 -13 -20 l7 -25 -26 22 c-27 24 -27 40 -1 40 14 0 34 38
34 66 0 12 -12 14 -64 9 -36 -3 -71 -8 -79 -11 -8 -3 -18 -1 -21 4 -7 12 -37
6 -83 -14 -17 -8 -35 -14 -40 -14 -5 0 -14 -13 -20 -29 -6 -16 -20 -34 -31
-40 -18 -9 -26 -6 -55 19 -44 38 -54 38 -50 -2 l3 -33 -13 35 c-11 28 -20 36
-48 41 -19 4 -29 7 -24 8 6 1 4 5 -4 10 -8 5 -34 1 -70 -12 -53 -20 -146 -27
-352 -26 -25 0 -68 -5 -95 -12 -27 -6 -74 -10 -104 -9 -30 1 -64 2 -75 1 -16
0 -17 2 -5 9 8 5 17 7 21 4 4 -2 10 0 14 6 3 5 27 10 53 10 28 0 42 4 34 8 -7
5 -10 16 -7 24 6 16 32 24 120 36 28 4 46 10 40 13 -16 10 -188 -6 -213 -20
-26 -14 -46 -6 -22 9 11 7 8 10 -12 15 -15 4 -35 5 -45 2 -15 -3 -14 -5 7 -14
25 -11 24 -11 -20 -30 -59 -26 -171 -36 -410 -39 -107 -1 -216 -7 -243 -13
-26 -6 -109 -14 -185 -17 -75 -3 -158 -10 -184 -16 -37 -8 -63 -6 -120 7 -40
9 -145 23 -233 29 -156 13 -161 12 -188 -8 l-27 -20 -22 22 c-16 16 -22 35
-23 75 -1 29 -5 59 -9 65 -4 6 -2 21 4 32 10 18 19 20 84 18 59 -2 72 -6 68
-17 -4 -11 -1 -13 14 -7 10 5 82 19 159 31 77 13 151 26 165 28 14 3 62 4 107
3 l82 -1 -22 -23z m1980 12 c-3 -3 -12 -4 -19 -1 -8 3 -5 6 6 6 11 1 17 -2 13
-5z m-309 -220 c-10 -10 -21 -13 -29 -8 -12 7 0 14 41 23 2 1 -3 -6 -12 -15z
m48 -21 c-16 -8 -47 -15 -69 -15 -49 1 -63 12 -16 13 19 1 45 5 59 9 42 14 57
10 26 -7z m-2332 -18 c9 -14 13 -25 8 -25 -5 0 -14 11 -20 25 -6 14 -10 25 -8
25 2 0 11 -11 20 -25z"/>
<path d="M480 1446 c0 -2 7 -6 15 -10 8 -3 15 -1 15 4 0 6 -7 10 -15 10 -8 0
-15 -2 -15 -4z"/>
<path d="M3271 1324 c0 -11 3 -14 6 -6 3 7 2 16 -1 19 -3 4 -6 -2 -5 -13z"/>
<path d="M1497 1291 c-41 -27 -43 -31 -11 -31 22 0 26 3 14 10 -8 5 -10 10 -4
10 5 0 19 7 30 15 27 20 5 17 -29 -4z"/>
<path d="M2290 1079 c-11 -7 6 -8 55 -3 39 3 72 8 74 10 10 9 -116 3 -129 -7z"/>
<path d="M970 1039 c-28 -8 -27 -9 15 -16 33 -5 120 5 112 14 -9 8 -100 10
-127 2z"/>
<path d="M1144 1019 c-5 -8 3 -10 25 -7 18 3 34 1 37 -4 3 -5 10 -5 16 -2 15
9 -11 24 -44 24 -15 0 -30 -5 -34 -11z"/>
<path d="M390 1009 c0 -5 5 -7 10 -4 6 3 10 8 10 11 0 2 -4 4 -10 4 -5 0 -10
-5 -10 -11z"/>
<path d="M1244 1009 c-3 -5 6 -9 20 -9 31 0 34 6 6 13 -11 3 -23 1 -26 -4z"/>
<path d="M788 993 c6 -2 18 -2 25 0 6 3 1 5 -13 5 -14 0 -19 -2 -12 -5z"/>
</g>
</svg>
